<?xml version="1.0" standalone="no"?>
<!DOCTYPE svg PUBLIC "-//W3C//DTD SVG 20010904//EN"
 "http://www.w3.org/TR/2001/REC-SVG-20010904/DTD/svg10.dtd">
<svg version="1.0" xmlns="http://www.w3.org/2000/svg"
 width="358.000000pt" height="90.000000pt" viewBox="0 0 358.000000 90.000000"
 preserveAspectRatio="xMidYMid meet">

<g transform="translate(0.000000,90.000000) scale(0.100000,-0.100000)"
fill="#D5333E" stroke="none">
<path d="M1423 613 c-23 -8 -13 -33 15 -38 86 -18 142 -78 142 -152 0 -79 -54
-145 -130 -158 -31 -5 -40 -11 -38 -23 3 -13 13 -16 38 -14 49 4 99 32 134 75
60 75 42 211 -36 270 -33 26 -102 47 -125 40z"/>
<path d="M2498 610 c-56 -10 -113 -53 -137 -102 -53 -110 4 -246 117 -278 55
-15 82 -12 139 14 65 31 106 88 107 149 l1 42 -50 0 c-39 0 -50 -4 -53 -17 -3
-14 4 -18 31 -18 31 0 34 -2 30 -24 -3 -13 -18 -39 -34 -58 -93 -114 -281 -35
-267 113 8 78 53 124 141 143 15 4 27 13 27 21 0 20 -10 22 -52 15z"/>
<path d="M310 591 c-118 -63 -140 -221 -42 -312 60 -57 152 -77 152 -34 0 9
-9 15 -22 15 -38 0 -106 40 -128 76 -52 84 -4 210 89 230 53 12 61 16 61 30 0
20 -67 17 -110 -5z"/>
<path d="M818 590 c-103 -56 -132 -195 -61 -288 74 -97 202 -105 289 -18 86
85 77 212 -19 290 -33 26 -48 31 -105 33 -52 3 -75 -1 -104 -17z m168 -38 c87
-47 103 -168 32 -241 -95 -97 -257 -33 -260 103 -2 120 122 195 228 138z"/>
<path d="M1962 418 c3 -164 5 -193 18 -193 13 0 15 29 18 193 2 188 2 192 -18
192 -20 0 -20 -4 -18 -192z"/>
<path d="M3110 591 c-19 -11 -45 -30 -57 -43 -23 -24 -53 -97 -53 -127 0 -62
53 -146 109 -176 74 -38 158 -26 221 31 78 71 83 196 11 278 -48 55 -162 73
-231 37z m177 -46 c119 -78 58 -279 -85 -279 -65 0 -114 31 -142 89 -68 139
96 276 227 190z"/>
</g>
</svg>
